<svg id="Flat" height="512" viewBox="0 0 512 512" width="512" xmlns="http://www.w3.org/2000/svg"><path d="m112 352h48v88h-48z" fill="#f5cbaa"/><path d="m352 352h48v88h-48z" fill="#f5cbaa"/><path d="m280 208h-48l-68.551 13.71a64 64 0 0 0 -51.449 62.757v67.533h48v136h192v-136h48v-67.533a64 64 0 0 0 -51.449-62.757z" fill="#e74444"/><path d="m320 216-40 40-24-24v-24h24z" fill="#ce3536"/><path d="m192 216 40 40 24-24v-24h-24z" fill="#ce3536"/><path d="m280 208-24 24-24-24v-64h48z" fill="#deb89a"/><path d="m200 64h112a0 0 0 0 1 0 0v64a48 48 0 0 1 -48 48h-16a48 48 0 0 1 -48-48v-64a0 0 0 0 1 0 0z" fill="#f5cbaa"/><path d="m144 416h208v72h-208z" fill="#794832"/><circle cx="256" cy="304" fill="#6a7073" r="8"/><circle cx="256" cy="272" fill="#6a7073" r="8"/><path d="m192 328h128v80h-128z" fill="#ab6647"/><path d="m144 392h224v48h-224z" fill="#93573d"/><path d="m112 408h32a0 0 0 0 1 0 0v24a16 16 0 0 1 -16 16 16 16 0 0 1 -16-16v-24a0 0 0 0 1 0 0z" fill="#deb89a" transform="matrix(-1 0 0 -1 256 856)"/><path d="m128 440h32a16 16 0 0 1 16 16v32a0 0 0 0 1 0 0h-48a16 16 0 0 1 -16-16v-16a16 16 0 0 1 16-16z" fill="#f5cbaa" transform="matrix(-1 0 0 -1 288 928)"/><path d="m384 408a16 16 0 0 1 16 16v24a0 0 0 0 1 0 0h-32a0 0 0 0 1 0 0v-24a16 16 0 0 1 16-16z" fill="#deb89a"/><path d="m352 440h48a0 0 0 0 1 0 0v32a16 16 0 0 1 -16 16h-32a16 16 0 0 1 -16-16v-16a16 16 0 0 1 16-16z" fill="#f5cbaa"/><path d="m352 352a8 8 0 0 1 -8-8v-32a8 8 0 0 1 16 0v32a8 8 0 0 1 -8 8z" fill="#ce3536"/><path d="m160 352a8 8 0 0 1 -8-8v-32a8 8 0 0 1 16 0v32a8 8 0 0 1 -8 8z" fill="#ce3536"/><path d="m320 104h-128v-44.912a16 16 0 0 1 10.382-14.981l48-18a15.993 15.993 0 0 1 11.236 0l48 18a16 16 0 0 1 10.382 14.981z" fill="#fc8d36"/><path d="m192 104s16-40 64-40 64 40 64 40z" fill="#ea8333"/></svg>