<svg id="Layer_1" enable-background="new 0 0 512 512" height="512" viewBox="0 0 512 512" width="512" xmlns="http://www.w3.org/2000/svg"><g><path d="m106.476 419.238v-399.958c0-2.36 1.92-4.28 4.28-4.28h290.487c2.36 0 4.28 1.92 4.28 4.28v399.958z" fill="#00485b"/><path d="m401.244 15h-148.276v404.238h152.555v-399.958c0-2.36-1.92-4.28-4.279-4.28z" fill="#00303d"/><g><path d="m405.523 512c-8.284 0-15-6.716-15-15v-439.932c0-8.284 6.716-15 15-15s15 6.716 15 15v439.932c0 8.284-6.716 15-15 15z" fill="#70330e"/></g><g><path d="m106.477 512c-8.284 0-15-6.716-15-15v-439.932c0-8.284 6.716-15 15-15s15 6.716 15 15v439.932c0 8.284-6.716 15-15 15z" fill="#a44613"/></g><path d="m390.523 30v374.238h-269.046v-374.238zm10.721-30h-290.488c-10.648 0-19.28 8.632-19.28 19.28v414.959h329.047v-414.959c0-10.648-8.631-19.28-19.279-19.28z" fill="#ff7d43"/><g><path d="m252.968 178.632c-8.284 0-15-6.716-15-15v-29.507c0-8.284 6.716-15 15-15s15 6.716 15 15v29.507c0 8.285-6.716 15-15 15z" fill="#b7b3e2"/></g><g><path d="m344.174 90.456h-177.738c-8.284 0-15-6.716-15-15s6.716-15 15-15h177.737c8.284 0 15 6.716 15 15s-6.715 15-14.999 15z" fill="#fdbf00"/></g><g><g><path d="m344.174 372.664h-177.738c-8.284 0-15-6.716-15-15s6.716-15 15-15h177.737c8.284 0 15 6.716 15 15s-6.715 15-14.999 15z" fill="#fdbf00"/></g></g><g><g><path d="m252.766 313.973c-11.758 0-23.516-4.476-32.467-13.426-3.006-3.007-7.003-4.662-11.255-4.662-4.251 0-8.248 1.655-11.254 4.662-5.857 5.858-15.355 5.858-21.213 0s-5.858-15.355 0-21.213c8.672-8.673 20.203-13.449 32.467-13.449 12.265 0 23.795 4.776 32.468 13.449 6.206 6.206 16.304 6.205 22.509 0l.405-.404c8.672-8.673 20.203-13.449 32.468-13.449 12.264 0 23.795 4.776 32.467 13.449 5.858 5.858 5.858 15.355 0 21.213-5.857 5.858-15.355 5.858-21.213 0-6.207-6.205-16.304-6.205-22.509 0l-.405.405c-8.952 8.949-20.71 13.425-32.468 13.425z" fill="#fff9bf"/></g></g><path d="m401.244 0h-148.276v30h137.555v374.238h-137.555v30h167.555v-414.958c0-10.648-8.632-19.28-19.279-19.28z" fill="#ff3f5c"/><path d="m344.174 60.456h-91.206v30h91.206c8.284 0 15-6.716 15-15s-6.716-15-15-15z" fill="#ff9f00"/><path d="m267.968 163.632v-29.507c0-8.284-6.716-15-15-15v59.507c8.284 0 15-6.715 15-15z" fill="#8f8fbf"/><path d="m296.893 265.484c-12.265 0-23.795 4.776-32.468 13.449l-.405.404c-3.051 3.052-7.044 4.594-11.052 4.645v29.991c11.691-.051 23.365-4.522 32.265-13.422l.405-.405c6.206-6.205 16.303-6.205 22.509 0 5.857 5.858 15.355 5.858 21.213 0s5.858-15.355 0-21.213c-8.672-8.673-20.203-13.449-32.467-13.449z" fill="#ffe470"/><path d="m344.174 342.664h-91.206v30h91.206c8.284 0 15-6.716 15-15s-6.716-15-15-15z" fill="#ff9f00"/><path d="m252.968 148.632c-40.35 0-73.178 32.828-73.178 73.178 0 8.284 6.716 15 15 15h116.355c8.284 0 15-6.716 15-15 .001-40.35-32.827-73.178-73.177-73.178z" fill="#e3dff6"/><path d="m311.146 236.81c8.284 0 15-6.716 15-15 0-40.35-32.828-73.178-73.178-73.178v88.178z" fill="#b7b3e2"/></g></svg>